<?xml version="1.0" encoding="UTF-8"?>
<svg width="700pt" height="700pt" version="1.1" viewBox="0 0 700 700" xmlns="http://www.w3.org/2000/svg">
 <g>
  <path d="m350 35c135.1 0 245 109.9 245 245s-109.9 245-245 245-245-109.9-245-245 109.9-245 245-245m0-35c-154.65 0-280 125.35-280 280s125.35 280 280 280 280-125.35 280-280-125.35-280-280-280z"/>
  <path d="m472.73 416.27c-121.41-90.598-243.97-0.94531-245.21-0.015626l-20.984-28.035c1.4336-1.0508 144.92-106.09 287.11-0.015625z"/>
  <path d="m225.45 263.83-19.074-29.363 52.48-34.055-52.465-34.039 19.039-29.363 97.723 63.402z"/>
  <path d="m474.55 263.83-97.703-63.418 97.723-63.402 19.02 29.363-52.465 34.039 52.484 34.055z"/>
 </g>
</svg>
